{
  "accessors": [
    {
      "bufferView": 2,
      "componentType": 5126,
      "count": 15848,
      "max": [
        27.42354965209961,
        26.71611976623535,
        27.371980667114258
      ],
      "min": [
        -27.544450759887695,
        -12.901969909667969,
        -26.074390411376953
      ],
      "type": "VEC3"
    },
    {
      "bufferView": 2,
      "byteOffset": 190176,
      "componentType": 5126,
      "count": 15848,
      "max": [
        1.0,
        0.9999998807907104,
        0.9999986290931702
      ],
      "min": [
        -0.9999998211860657,
        -1.0,
        -0.999997615814209
      ],
      "type": "VEC3"
    },
    {
      "bufferView": 1,
      "componentType": 5126,
      "count": 15848,
      "max": [
        0.9986050724983215,
        0.9994999766349792
      ],
      "min": [
        0.0005000000237487257,
        0.0005000000237487257
      ],
      "type": "VEC2"
    },
    {
      "bufferView": 1,
      "byteOffset": 126784,
      "componentType": 5126,
      "count": 15848,
      "max": [
        6.939033031463623,
        6.9401679039001465
      ],
      "min": [
        0.0035000001080334187,
        0.0035000001080334187
      ],
      "type": "VEC2"
    },
    {
      "bufferView": 0,
      "componentType": 5125,
      "count": 89016,
      "type": "SCALAR"
    },
    {
      "bufferView": 2,
      "byteOffset": 380352,
      "componentType": 5126,
      "count": 438,
      "max": [
        11.553720474243164,
        20.854400634765625,
        -11.993459701538086
      ],
      "min": [
        -11.649809837341309,
        11.725729942321777,
        -16.526979446411133
      ],
      "type": "VEC3"
    },
    {
      "bufferView": 2,
      "byteOffset": 385608,
      "componentType": 5126,
      "count": 438,
      "max": [
        0.9999850988388062,
        0.9935536980628967,
        0.9947248101234436
      ],
      "min": [
        -0.9999841451644897,
        -0.9990631937980652,
        -0.7140225768089294
      ],
      "type": "VEC3"
    },
    {
      "bufferView": 1,
      "byteOffset": 253568,
      "componentType": 5126,
      "count": 438,
      "max": [
        0.7892466187477112,
        0.4034389853477478
      ],
      "min": [
        0.005481812171638012,
        0.0005000000237487257
      ],
      "type": "VEC2"
    },
    {
      "bufferView": 1,
      "byteOffset": 257072,
      "componentType": 5126,
      "count": 438,
      "max": [
        0.9537476897239685,
        0.9690377116203308
      ],
      "min": [
        0.03334582969546318,
        0.026710260659456253
      ],
      "type": "VEC2"
    },
    {
      "bufferView": 0,
      "byteOffset": 356064,
      "componentType": 5125,
      "count": 2304,
      "type": "SCALAR"
    },
    {
      "bufferView": 2,
      "byteOffset": 390864,
      "componentType": 5126,
      "count": 498,
      "max": [
        19.405750274658203,
        -12.51198959350586,
        23.106470108032227
      ],
      "min": [
        -19.514320373535156,
        -27.406200408935547,
        -14.514030456542969
      ],
      "type": "VEC3"
    },
    {
      "bufferView": 2,
      "byteOffset": 396840,
      "componentType": 5126,
      "count": 498,
      "max": [
        0.9945580363273621,
        0.14086520671844482,
        0.9979427456855774
      ],
      "min": [
        -0.9945580363273621,
        -1.0,
        -0.9979427456855774
      ],
      "type": "VEC3"
    },
    {
      "bufferView": 1,
      "byteOffset": 260576,
      "componentType": 5126,
      "count": 498,
      "max": [
        0.9900761842727661,
        0.6038225889205933
      ],
      "min": [
        0.042978379875421524,
        0.1798451989889145
      ],
      "type": "VEC2"
    },
    {
      "bufferView": 1,
      "byteOffset": 264560,
      "componentType": 5126,
      "count": 498,
      "max": [
        6.996500015258789,
        6.820055961608887
      ],
      "min": [
        2.5460550785064697,
        2.065031051635742
      ],
      "type": "VEC2"
    },
    {
      "bufferView": 0,
      "byteOffset": 365280,
      "componentType": 5125,
      "count": 1200,
      "type": "SCALAR"
    },
    {
      "bufferView": 2,
      "byteOffset": 402816,
      "componentType": 5126,
      "count": 4,
      "max": [
        167.02890014648438,
        167.02890014648438,
        0.0
      ],
      "min": [
        -167.02890014648438,
        -167.02890014648438,
        0.0
      ],
      "type": "VEC3"
    },
    {
      "bufferView": 2,
      "byteOffset": 402864,
      "componentType": 5126,
      "count": 4,
      "max": [
        0.0,
        0.0,
        1.0
      ],
      "min": [
        0.0,
        0.0,
        1.0
      ],
      "type": "VEC3"
    },
    {
      "bufferView": 1,
      "byteOffset": 268544,
      "componentType": 5126,
      "count": 4,
      "max": [
        1.0,
        1.0
      ],
      "min": [
        2.98022992950564e-08,
        2.98022992950564e-08
      ],
      "type": "VEC2"
    },
    {
      "bufferView": 0,
      "byteOffset": 370080,
      "componentType": 5125,
      "count": 6,
      "type": "SCALAR"
    }
  ],
  "asset": {
    "extras": {
      "author": "MADE.COM (https://sketchfab.com/made-it)",
      "license": "CC-BY-NC-4.0 (http://creativecommons.org/licenses/by-nc/4.0/)",
      "source": "https://sketchfab.com/3d-models/ritchie-armchair-ochre-yellow-a2217ae834c74a90a439a3a6a09c4e8f",
      "title": "Ritchie Armchair, Ochre Yellow"
    },
    "generator": "Sketchfab-12.68.0",
    "version": "2.0"
  },
  "bufferViews": [
    {
      "buffer": 0,
      "byteLength": 370104,
      "name": "floatBufferViews",
      "target": 34963
    },
    {
      "buffer": 0,
      "byteLength": 268576,
      "byteOffset": 370104,
      "byteStride": 8,
      "name": "floatBufferViews",
      "target": 34962
    },
    {
      "buffer": 0,
      "byteLength": 402912,
      "byteOffset": 638680,
      "byteStride": 12,
      "name": "floatBufferViews",
      "target": 34962
    }
  ],
  "buffers": [
    {
      "byteLength": 1041592,
      "uri": "scene.bin"
    }
  ],
  "images": [
    {
      "uri": "textures/FLOOR_baseColor.png"
    },
    {
      "uri": "textures/PEARL_GREY_baseColor.jpeg"
    },
    {
      "uri": "textures/PEARL_GREY_metallicRoughness.png"
    }
  ],
  "materials": [
    {
      "alphaMode": "BLEND",
      "doubleSided": true,
      "name": "FLOOR",
      "pbrMetallicRoughness": {
        "baseColorFactor": [
          0.0,
          0.0,
          0.0,
          1.0
        ],
        "baseColorTexture": {
          "index": 0
        },
        "metallicFactor": 0.0
      }
    },
    {
      "doubleSided": true,
      "name": "PEARL_GREY",
      "occlusionTexture": {
        "index": 2,
        "strength": 0.3431783537
      },
      "pbrMetallicRoughness": {
        "baseColorTexture": {
          "index": 1
        },
        "metallicFactor": 0.0,
        "metallicRoughnessTexture": {
          "index": 2
        }
      }
    },
    {
      "doubleSided": true,
      "name": "EnvironmentAmbientLight",
      "pbrMetallicRoughness": {
        "baseColorTexture": {
          "index": 1
        },
        "metallicFactor": 0.0
      }
    },
    {
      "doubleSided": true,
      "name": "LEGS",
      "pbrMetallicRoughness": {
        "baseColorTexture": {
          "index": 1
        },
        "metallicFactor": 0.0,
        "roughnessFactor": 0.3797637195
      }
    }
  ],
  "meshes": [
    {
      "name": "PEARL_GREY",
      "primitives": [
        {
          "attributes": {
            "NORMAL": 1,
            "POSITION": 0,
            "TEXCOORD_0": 2,
            "TEXCOORD_1": 3
          },
          "indices": 4,
          "material": 1,
          "mode": 4
        }
      ]
    },
    {
      "name": "RAINBOW_BUTTONS",
      "primitives": [
        {
          "attributes": {
            "NORMAL": 6,
            "POSITION": 5,
            "TEXCOORD_0": 7,
            "TEXCOORD_1": 8
          },
          "indices": 9,
          "material": 2,
          "mode": 4
        }
      ]
    },
    {
      "name": "LEGS",
      "primitives": [
        {
          "attributes": {
            "NORMAL": 11,
            "POSITION": 10,
            "TEXCOORD_0": 12,
            "TEXCOORD_1": 13
          },
          "indices": 14,
          "material": 3,
          "mode": 4
        }
      ]
    },
    {
      "name": "FLOOR",
      "primitives": [
        {
          "attributes": {
            "NORMAL": 16,
            "POSITION": 15,
            "TEXCOORD_0": 17
          },
          "indices": 18,
          "material": 0,
          "mode": 4
        }
      ]
    }
  ],
  "nodes": [
    {
      "children": [
        1
      ],
      "matrix": [
        1.0,
        0.0,
        0.0,
        0.0,
        0.0,
        2.220446049250313e-16,
        -1.0,
        0.0,
        0.0,
        1.0,
        2.220446049250313e-16,
        0.0,
        0.0,
        0.0,
        0.0,
        1.0
      ],
      "name": "Sketchfab_model"
    },
    {
      "children": [
        2,
        7,
        9
      ],
      "name": "Collada visual scene group"
    },
    {
      "children": [
        3
      ],
      "matrix": [
        1.0,
        0.0,
        0.0,
        0.0,
        0.0,
        -1.62921e-07,
        1.0,
        0.0,
        0.0,
        -1.0,
        -1.62921e-07,
        0.0,
        0.0,
        0.0,
        0.1086651,
        1.0
      ],
      "name": "Ritchie_Armchair_RainbowButtons"
    },
    {
      "children": [
        4,
        5,
        6
      ],
      "matrix": [
        1.0,
        0.0,
        0.0,
        0.0,
        0.0,
        1.0,
        0.0,
        0.0,
        0.0,
        0.0,
        1.0,
        0.0,
        0.06045151,
        27.40843,
        -0.6487995,
        1.0
      ],
      "name": "Object_3"
    },
    {
      "mesh": 0,
      "name": "PEARL_GREY"
    },
    {
      "mesh": 1,
      "name": "RAINBOW_BUTTONS"
    },
    {
      "mesh": 2,
      "name": "LEGS"
    },
    {
      "children": [
        8
      ],
      "name": "Plane001"
    },
    {
      "mesh": 3,
      "name": "FLOOR"
    },
    {
      "children": [
        10
      ],
      "name": "EnvironmentAmbientLight"
    },
    {
      "name": "EnvironmentAmbientLight"
    }
  ],
  "samplers": [
    {
      "magFilter": 9729,
      "minFilter": 9987,
      "wrapS": 10497,
      "wrapT": 10497
    }
  ],
  "scene": 0,
  "scenes": [
    {
      "name": "Sketchfab_Scene",
      "nodes": [
        0
      ]
    }
  ],
  "textures": [
    {
      "sampler": 0,
      "source": 0
    },
    {
      "sampler": 0,
      "source": 1
    },
    {
      "sampler": 0,
      "source": 2
    }
  ]
}
